HIERARCHY
ROOT joint_Root
{
	OFFSET 0.0 0.0 0.0
	CHANNELS 6 Xposition Yposition Zposition Zrotation Xrotation Yrotation 
	JOINT Hips
	{
		OFFSET -17.1583 93.1646 452.98
		CHANNELS 6 Xposition Yposition Zposition Zrotation Xrotation Yrotation 
		JOINT Spine
		{
			OFFSET 15.7357 0.0 0.0
			CHANNELS 6 Xposition Yposition Zposition Zrotation Xrotation Yrotation 
			JOINT Chest
			{
				OFFSET 8.98455 -0.406207 0.0
				CHANNELS 6 Xposition Yposition Zposition Zrotation Xrotation Yrotation 
				JOINT Neck
				{
					OFFSET 16.3773 0.0 0.0
					CHANNELS 6 Xposition Yposition Zposition Zrotation Xrotation Yrotation 
					JOINT Head
					{
						OFFSET 6.45672 0.0 0.0
						CHANNELS 6 Xposition Yposition Zposition Zrotation Xrotation Yrotation 
						End Site
						{
							OFFSET 0.0 0.0 0.0
						}
					}
				}
				JOINT Shoulder_L
				{
					OFFSET 12.9942 -0.242716 4.98039
					CHANNELS 6 Xposition Yposition Zposition Zrotation Xrotation Yrotation 
					JOINT UpperArm_L
					{
						OFFSET 5.34809 0.0 0.0
						CHANNELS 6 Xposition Yposition Zposition Zrotation Xrotation Yrotation 
						JOINT LowerArm_L
						{
							OFFSET 24.3286 1.87007e-05 0.0
							CHANNELS 6 Xposition Yposition Zposition Zrotation Xrotation Yrotation 
							JOINT Hand_L
							{
								OFFSET 22.2916 0.0 0.0
								CHANNELS 6 Xposition Yposition Zposition Zrotation Xrotation Yrotation 
								End Site
								{
									OFFSET 0.0 0.0 0.0
								}
							}
						}
					}
				}
				JOINT Shoulder_R
				{
					OFFSET 12.9945 -0.242716 -4.98039
					CHANNELS 6 Xposition Yposition Zposition Zrotation Xrotation Yrotation 
					JOINT UpperArm_R
					{
						OFFSET -5.34813 0.0 0.0
						CHANNELS 6 Xposition Yposition Zposition Zrotation Xrotation Yrotation 
						JOINT LowerArm_R
						{
							OFFSET -24.3289 0.000322201 0.0
							CHANNELS 6 Xposition Yposition Zposition Zrotation Xrotation Yrotation 
							JOINT Hand_R
							{
								OFFSET -22.2915 -0.000108084 0.0
								CHANNELS 6 Xposition Yposition Zposition Zrotation Xrotation Yrotation 
								End Site
								{
									OFFSET 0.0 0.0 0.0
								}
							}
						}
					}
				}
			}
		}
		JOINT UpperLeg_L
		{
			OFFSET -2.19248 -6.46944 0.0
			CHANNELS 6 Xposition Yposition Zposition Zrotation Xrotation Yrotation 
			JOINT LowerLeg_L
			{
				OFFSET 39.0811 0.0 -1.23785e-05
				CHANNELS 6 Xposition Yposition Zposition Zrotation Xrotation Yrotation 
				JOINT Foot_L
				{
					OFFSET 40.9854 0.0 -1.26872e-05
					CHANNELS 6 Xposition Yposition Zposition Zrotation Xrotation Yrotation 
					JOINT Toes_L
					{
						OFFSET 11.7543 0.0 0.0
						CHANNELS 6 Xposition Yposition Zposition Zrotation Xrotation Yrotation 
						End Site
						{
							OFFSET 0.0 0.0 0.0
						}
					}
				}
			}
		}
		JOINT UpperLeg_R
		{
			OFFSET -2.19251 6.46944 0.0
			CHANNELS 6 Xposition Yposition Zposition Zrotation Xrotation Yrotation 
			JOINT LowerLeg_R
			{
				OFFSET -39.0811 -0.00228153 -0.0401928
				CHANNELS 6 Xposition Yposition Zposition Zrotation Xrotation Yrotation 
				JOINT Foot_R
				{
					OFFSET -40.9854 0.0 0.0
					CHANNELS 6 Xposition Yposition Zposition Zrotation Xrotation Yrotation 
					JOINT Toes_R
					{
						OFFSET -11.7543 0.0 0.0
						CHANNELS 6 Xposition Yposition Zposition Zrotation Xrotation Yrotation 
						End Site
						{
							OFFSET 0.0 0.0 0.0
						}
					}
				}
			}
		}
	}
}
MOTION
Frames:	8
Frame Time:	0.0333333
0.000000 0.000000 0.000000 0.000000 0.000000 -0.000000 -0.585744 93.071400 -1.387170 87.561400 1.200420 1.239840 15.735700 0.000005 -0.000001 62.222100 87.136400 -60.607600 8.984550 -0.406207 -0.000000 -2.658490 -2.814990 3.164200 16.377300 -0.000001 -0.000001 5.541500 1.303340 -2.056470 6.456720 -0.000001 -0.000000 3.835100 0.898611 -1.867770 12.994200 -0.242716 4.980390 -92.436300 7.375100 -71.662200 5.348090 -0.000007 -0.000001 -74.155700 27.702600 0.885144 24.328600 0.000019 0.000005 12.639900 28.707500 -25.026500 22.291600 -0.000001 0.000005 -3.443000 5.031770 6.636360 12.994500 -0.242716 -4.980390 88.567900 4.321170 -71.644200 -5.348130 -0.000001 -0.000004 -73.468300 11.133500 -2.500190 -24.328900 0.000322 -0.000009 3.461970 8.056240 -23.354800 -22.291500 -0.000108 -0.000004 7.192820 5.297440 0.143864 -2.192480 -6.469440 -0.000000 -176.784000 1.503780 -2.750810 39.081100 -0.000007 -0.000012 0.170950 -0.501644 18.818400 40.985400 -0.000006 -0.000013 2.655100 10.862000 -70.974800 11.754300 -0.000000 0.000003 0.000624 0.156358 -10.235500 -2.192510 6.469440 -0.000001 -176.045000 6.139190 -178.493000 -39.081100 -0.002282 -0.040193 0.027425 -0.109888 12.364900 -40.985400 0.000008 0.000006 -1.004990 1.860170 -68.316800 -11.754300 -0.000006 -0.000006 -0.009040 0.263990 -5.850070
0.000000 0.000000 0.000000 0.000000 0.000000 -0.000000 -0.630893 93.082500 -1.441950 87.534800 1.216970 1.071100 15.735700 0.000005 -0.000001 61.936700 87.135600 -60.309900 8.984550 -0.406207 -0.000000 -2.669710 -2.842230 3.188000 16.377300 -0.000001 -0.000001 5.412790 1.305610 -2.031520 6.456720 -0.000001 -0.000000 3.720200 0.914017 -1.871930 12.994200 -0.242716 4.980390 -92.424500 7.337080 -71.657100 5.348090 -0.000007 -0.000001 -74.078300 27.702800 0.734062 24.328600 0.000019 0.000005 12.622500 28.671100 -25.020800 22.291600 -0.000001 0.000005 -3.395640 5.030570 6.662260 12.994500 -0.242716 -4.980390 88.600100 4.232260 -71.678800 -5.348130 -0.000001 -0.000004 -73.477400 10.845200 -2.348570 -24.328900 0.000322 -0.000009 3.707030 8.279450 -24.230200 -22.291500 -0.000108 -0.000004 7.192680 5.296110 0.181153 -2.192480 -6.469440 -0.000000 -176.715000 1.445700 -2.960150 39.081100 -0.000007 -0.000012 0.171554 -0.504047 18.796400 40.985400 -0.000006 -0.000013 2.629510 10.952500 -70.901500 11.754300 -0.000000 0.000003 0.000589 0.157038 -10.207900 -2.192510 6.469440 -0.000001 -175.976000 6.077450 -178.671000 -39.081100 -0.002282 -0.040193 0.026226 -0.105105 12.286900 -40.985400 0.000008 0.000006 -1.093960 1.843070 -68.190000 -11.754300 -0.000006 -0.000006 -0.008814 0.262217 -5.922540
0.000000 0.000000 0.000000 0.000000 0.000000 -0.000000 -0.681492 93.093500 -1.470110 87.512200 1.201410 0.995945 15.735700 0.000005 -0.000001 62.222500 87.123900 -60.592900 8.984550 -0.406207 -0.000000 -2.635840 -2.827630 3.194870 16.377300 -0.000001 -0.000001 5.324380 1.278540 -2.001350 6.456720 -0.000001 -0.000000 3.603920 0.895471 -1.815960 12.994200 -0.242716 4.980390 -92.396100 7.267870 -71.698000 5.348090 -0.000007 -0.000001 -74.044100 27.668000 0.599892 24.328600 0.000019 0.000005 12.622800 28.670000 -25.022200 22.291600 -0.000001 0.000005 -3.253000 5.030710 6.659300 12.994500 -0.242716 -4.980390 88.624700 4.161460 -71.693200 -5.348130 -0.000001 -0.000004 -73.424100 10.441900 -2.181430 -24.328900 0.000322 -0.000009 3.987810 8.512720 -25.223600 -22.291500 -0.000108 -0.000004 7.110410 5.295150 0.207791 -2.192480 -6.469440 -0.000000 -176.655000 1.481750 -3.026850 39.081100 -0.000007 -0.000012 0.170780 -0.503175 18.747800 40.985400 -0.000006 -0.000013 2.574210 10.916100 -70.898000 11.754300 -0.000000 0.000003 0.000575 0.157314 -10.196700 -2.192510 6.469440 -0.000001 -175.910000 6.038220 -178.692000 -39.081100 -0.002282 -0.040193 0.024146 -0.096865 12.125200 -40.985400 0.000008 0.000006 -1.052880 1.800970 -68.073100 -11.754300 -0.000006 -0.000006 -0.008843 0.262450 -5.913000
0.000000 0.000000 0.000000 0.000000 0.000000 -0.000000 -0.741105 93.101600 -1.495910 87.492500 1.243380 0.908967 15.735700 0.000005 -0.000001 61.856100 87.094700 -60.214400 8.984550 -0.406207 -0.000000 -2.600380 -2.888270 3.218390 16.377300 -0.000001 -0.000001 5.239600 1.267830 -1.958190 6.456720 -0.000001 -0.000000 3.409130 0.911545 -1.799370 12.994200 -0.242716 4.980390 -92.378200 7.212860 -71.696600 5.348090 -0.000007 -0.000001 -74.016200 27.684300 0.468895 24.328600 0.000019 0.000005 12.633700 28.678400 -25.035700 22.291600 -0.000001 0.000005 -3.280070 5.031570 6.640690 12.994500 -0.242716 -4.980390 88.653000 4.077340 -71.701500 -5.348130 -0.000001 -0.000004 -73.344800 9.884600 -2.064850 -24.328900 0.000322 -0.000009 4.288020 8.681760 -26.420300 -22.291500 -0.000108 -0.000004 7.015190 5.285750 0.468048 -2.192480 -6.469440 -0.000000 -176.577000 1.497470 -3.129790 39.081100 -0.000007 -0.000012 0.170318 -0.502503 18.723800 40.985400 -0.000006 -0.000013 2.525030 10.974100 -70.889100 11.754300 -0.000000 0.000003 0.000722 0.154428 -10.313900 -2.192510 6.469440 -0.000001 -175.841000 6.013730 -178.772000 -39.081100 -0.002282 -0.040193 0.023044 -0.092253 12.059400 -40.985400 0.000008 0.000006 -1.208270 1.741700 -67.979500 -11.754300 -0.000006 -0.000006 -0.008730 0.261557 -5.949520
0.000000 0.000000 0.000000 0.000000 0.000000 -0.000000 -0.824230 93.115400 -1.541130 87.419500 1.252640 0.793739 15.735700 0.000005 -0.000001 61.659400 87.079800 -59.991300 8.984550 -0.406207 -0.000000 -2.582330 -2.922130 3.270950 16.377300 -0.000001 -0.000001 5.144860 1.243740 -1.884840 6.456720 -0.000001 -0.000000 3.183330 0.930678 -1.737560 12.994200 -0.242716 4.980390 -92.341400 7.128750 -71.763900 5.348090 -0.000007 -0.000001 -74.033900 27.729700 0.372986 24.328600 0.000019 0.000005 12.651400 28.695400 -25.055800 22.291600 -0.000001 0.000005 -3.267460 5.031970 6.631970 12.994500 -0.242716 -4.980390 88.677700 4.004110 -71.708000 -5.348130 -0.000001 -0.000004 -73.194500 9.139960 -1.915580 -24.328900 0.000322 -0.000009 4.687880 8.895400 -27.942300 -22.291500 -0.000108 -0.000004 6.850260 5.279730 0.633749 -2.192480 -6.469440 -0.000000 -176.438000 1.493200 -3.271890 39.081100 -0.000007 -0.000012 0.169707 -0.501196 18.706600 40.985400 -0.000006 -0.000013 2.457530 10.990200 -70.869400 11.754300 -0.000000 0.000003 0.000704 0.154792 -10.299100 -2.192510 6.469440 -0.000001 -175.715000 5.971510 -178.842000 -39.081100 -0.002282 -0.040193 0.020146 -0.079857 11.887700 -40.985400 0.000008 0.000006 -1.364970 1.721980 -67.849700 -11.754300 -0.000006 -0.000006 -0.008980 0.263522 -5.869210
0.000000 0.000000 0.000000 0.000000 0.000000 -0.000000 -0.899583 93.117700 -1.596480 87.378700 1.242320 0.625387 15.735700 0.000005 -0.000001 61.549400 87.080400 -59.856400 8.984550 -0.406207 -0.000000 -2.587930 -2.933710 3.320380 16.377300 -0.000001 -0.000001 4.997270 1.229160 -1.798030 6.456720 -0.000001 -0.000000 2.941740 0.928049 -1.679050 12.994200 -0.242716 4.980390 -92.307500 7.050540 -71.825700 5.348090 -0.000007 -0.000001 -74.045300 27.930300 0.228559 24.328600 0.000019 0.000005 12.584500 28.578500 -25.017500 22.291600 -0.000001 0.000005 -3.264690 5.033870 6.590670 12.994500 -0.242716 -4.980390 88.729600 3.847490 -71.711800 -5.348130 -0.000001 -0.000004 -73.140300 8.008670 -1.690380 -24.328900 0.000322 -0.000009 5.153190 8.992780 -29.987900 -22.291500 -0.000108 -0.000004 6.654580 5.262580 1.098370 -2.192480 -6.469440 -0.000000 -176.341000 1.547820 -3.518070 39.081100 -0.000007 -0.000012 0.171769 -0.505463 18.769400 40.985400 -0.000006 -0.000013 2.389960 10.954100 -70.860500 11.754300 -0.000000 0.000003 0.000713 0.154617 -10.306200 -2.192510 6.469440 -0.000001 -175.591000 5.905940 -179.035000 -39.081100 -0.002282 -0.040193 0.020547 -0.082117 11.837600 -40.985400 0.000008 0.000006 -1.309580 1.693500 -67.753100 -11.754300 -0.000006 -0.000006 -0.008768 0.261858 -5.937190
0.000000 0.000000 0.000000 0.000000 0.000000 -0.000000 -0.981091 93.126700 -1.664580 87.310500 1.192630 0.527595 15.735700 0.000005 -0.000001 61.658500 87.053900 -59.930500 8.984550 -0.406207 -0.000000 -2.534570 -2.951550 3.391300 16.377300 -0.000001 -0.000001 4.820800 1.212160 -1.685730 6.456720 -0.000001 -0.000000 2.571340 0.984090 -1.555850 12.994200 -0.242716 4.980390 -92.274900 6.974540 -71.884700 5.348090 -0.000007 -0.000001 -74.093100 28.018200 0.143065 24.328600 0.000019 0.000005 12.586700 28.502100 -25.075300 22.291600 -0.000001 0.000005 -3.236140 5.035070 6.564390 12.994500 -0.242716 -4.980390 88.786800 3.687230 -71.772900 -5.348130 -0.000001 -0.000004 -73.017800 6.779950 -1.329300 -24.328900 0.000322 -0.000009 5.650390 8.854390 -32.736900 -22.291500 -0.000108 -0.000004 6.318850 5.245390 1.554690 -2.192480 -6.469440 -0.000000 -176.211000 1.550120 -3.674860 39.081100 -0.000007 -0.000012 0.172863 -0.507617 18.805900 40.985400 -0.000006 -0.000013 2.309000 10.906200 -70.879400 11.754300 -0.000000 0.000003 0.000650 0.155863 -10.255600 -2.192510 6.469440 -0.000001 -175.459000 5.835610 -179.133000 -39.081100 -0.002282 -0.040193 0.018898 -0.075002 11.721700 -40.985400 0.000008 0.000006 -1.384350 1.657060 -67.606000 -11.754300 -0.000006 -0.000006 -0.008570 0.260290 -6.001280
0.000000 0.000000 0.000000 0.000000 0.000000 -0.000000 -1.078620 93.135700 -1.724580 87.269300 1.191950 0.405736 15.735700 0.000005 -0.000001 61.500000 87.021900 -59.748100 8.984550 -0.406207 -0.000000 -2.484750 -2.997770 3.439360 16.377300 -0.000001 -0.000001 4.604740 1.190420 -1.554670 6.456720 -0.000001 -0.000000 2.096740 1.014620 -1.319940 12.994200 -0.242716 4.980390 -92.239700 6.879960 -71.918700 5.348090 -0.000007 -0.000001 -74.129200 28.134000 0.017439 24.328600 0.000019 0.000005 12.662800 28.554100 -25.175800 22.291600 -0.000001 0.000005 -3.260030 5.033920 6.589700 12.994500 -0.242716 -4.980390 88.828100 3.565000 -71.789800 -5.348130 -0.000001 -0.000004 -72.851300 5.266560 -0.846312 -24.328900 0.000322 -0.000009 6.276700 8.621320 -36.272900 -22.291500 -0.000108 -0.000004 6.108220 5.232410 1.893020 -2.192480 -6.469440 -0.000000 -176.101000 1.651170 -3.842320 39.081100 -0.000007 -0.000012 0.173927 -0.510432 18.816600 40.985400 -0.000006 -0.000013 2.210020 10.820500 -70.905600 11.754300 -0.000000 0.000003 0.000605 0.156739 -10.220000 -2.192510 6.469440 -0.000001 -175.348000 5.893060 -179.233000 -39.081100 -0.002282 -0.040193 0.017772 -0.070368 11.593100 -40.985400 0.000008 0.000006 -1.333180 1.718930 -67.527300 -11.754300 -0.000006 -0.000006 -0.008718 0.261460 -5.953480
